<svg width="215" height="277" viewBox="0 0 215 277" fill="none" xmlns="http://www.w3.org/2000/svg">
<path d="M18.9053 277L1.57545 232.61C12.0784 232.61 21.5311 230.909 29.9335 227.508C38.3358 224.446 42.537 217.303 42.537 206.078V199.955H0V112.705H94.5267V203.016C94.5267 226.147 87.6998 243.835 74.0459 256.081C60.7422 268.326 42.362 275.299 18.9053 277Z" fill="#05DF72"/>
<path d="M138.882 277L121.552 232.61C132.055 232.61 141.508 230.909 149.91 227.508C158.313 224.446 162.514 217.303 162.514 206.078V199.955H119.977V112.705H214.504V203.016C214.504 226.147 207.677 243.835 194.023 256.081C180.719 268.326 162.339 275.299 138.882 277Z" fill="#05DF72"/>
<path d="M214.503 87.2556H0V0.00012207H214.503V87.2556Z" fill="#05DF72"/>
</svg>
